<svg xmlns="http://www.w3.org/2000/svg" width="168" height="56" viewBox="0 0 168 56"><g fill="none" fill-rule="evenodd"><rect width="168" height="56" fill="#2C3038" rx="3"/><g fill-rule="nonzero"><path fill="#F49C71" d="M37.688 31.765l5.559-3.043c.628-.344 1.286-1.221 0-1.923l-5.562-3.034-3.982 4.012 3.985 3.988z"/><path fill="#D54A6D" d="M33.703 27.777L20.967 40.61c.288.036.634-.04 1.032-.258l15.69-8.588-3.986-3.987z"/><path fill="#ADD69E" d="M33.703 27.777l3.981-4.012L22 15.207c-.341-.186-.712-.25-1.041-.178l12.745 12.748z"/><path fill="#24B9C2" d="M33.703 27.777L20.958 15.03c-.527.117-.958.573-.958 1.488V39.08c0 .863.34 1.47.967 1.53l12.736-12.833z"/></g><path fill="#FFF" d="M69.12 33.264v.976c0 3.904-2.88 5.952-5.936 5.952-3.872 0-6.496-2.88-6.496-6.448 0-3.648 2.96-6.464 6.528-6.464 3.12 0 5.104 1.824 5.632 3.824l-2.528.768c-.272-1.072-1.44-2.128-3.136-2.128-2.112 0-3.856 1.712-3.856 3.984 0 2.176 1.584 4 3.856 4 1.696 0 2.928-.88 3.232-2.112h-3.808v-2.352h6.512zm1.216 2.48c0-2.544 2.096-4.48 4.688-4.48 2.576 0 4.64 1.888 4.64 4.432 0 2.576-2.096 4.496-4.672 4.496-2.592 0-4.656-1.872-4.656-4.448zm2.56-.032c0 1.296.944 2.192 2.112 2.192 1.168 0 2.096-.896 2.096-2.192 0-1.28-.944-2.176-2.112-2.176-1.168 0-2.096.896-2.096 2.176zm8.016.032c0-2.544 2.096-4.48 4.688-4.48 2.576 0 4.64 1.888 4.64 4.432 0 2.576-2.096 4.496-4.672 4.496-2.592 0-4.656-1.872-4.656-4.448zm2.56-.032c0 1.296.944 2.192 2.112 2.192 1.168 0 2.096-.896 2.096-2.192 0-1.28-.944-2.176-2.112-2.176-1.168 0-2.096.896-2.096 2.176zm17.136-4.256v8.416c0 2.944-1.984 4.4-4.608 4.4-2.736 0-4.176-1.504-4.496-3.072l2.288-.704c.224.8.736 1.6 2.192 1.6 1.152 0 2.144-.624 2.144-2.16v-1.072h-.032C97.328 39.856 96.24 40 95.632 40c-2.464 0-4.128-1.92-4.128-4.32 0-2.16 1.568-4.352 4.032-4.352.528 0 1.712.112 2.592 1.168h.032v-1.04h2.448zm-2.416 4.224c0-1.264-.912-2.128-2.08-2.128-1.152 0-2.08.88-2.08 2.128 0 1.28.912 2.144 2.08 2.144 1.152 0 2.08-.864 2.08-2.144zm4.736-8.72h2.512V40h-2.512V26.96zm6.896 7.808h3.68c-.048-.624-.576-1.488-1.824-1.488-1.12 0-1.76.928-1.856 1.488zm6.144 1.648h-6.208c.16 1.072 1.072 1.68 2.112 1.68.72 0 1.52-.432 1.808-1.136l2.048.704c-.56 1.648-2.144 2.528-3.824 2.528-2.592 0-4.688-1.824-4.688-4.48 0-2.464 2.064-4.464 4.528-4.464 2.544 0 4.256 1.744 4.256 4.272 0 .304 0 .608-.032.896zm15.264-4.928c0 2.768-1.952 4.096-4.576 4.096h-1.968V40h-2.592V27.472h4.656c2.512 0 4.48 1.36 4.48 4.016zm-2.608.064c0-1.216-1.024-1.632-2.096-1.632h-1.84v3.248h1.856c1.024 0 2.08-.448 2.08-1.616zm4.24-4.592h2.512V40h-2.512V26.96zm7.168 13.2c-1.488 0-2.832-.96-2.832-2.544v-.064c0-2.048 2.096-2.624 3.76-2.624h.832c.464 0 .672-.24.672-.592 0-.544-.448-1.056-1.344-1.056-.768 0-1.344.448-1.536 1.168l-2.192-.496c.288-1.824 2.048-2.688 3.84-2.688 2.128 0 3.68 1.136 3.68 3.44V40h-2.304v-1.056l-.032-.016c-.64.912-1.616 1.232-2.544 1.232zm.72-1.824c1.104 0 1.696-.784 1.696-1.648v-.192h-1.488c-.512 0-1.248.304-1.248.976 0 .608.512.864 1.04.864zm6.608 5.872l2.096-5.12-3.6-7.632h2.752l2.128 4.88 1.904-4.88h2.576l-5.184 12.752h-2.672zM63.66 16.09c0 1.8-1.27 3.91-4.16 3.91H57v-7.83h2.48c3.01 0 4.18 2.29 4.18 3.92zm-1.29 0c0-1.22-.85-2.78-2.91-2.78h-1.23v5.55h1.22c2.06 0 2.92-1.46 2.92-2.77zM66.36 20h-1.23v-7.83h1.23V20zm4.31.09c-1.83 0-2.79-1.18-2.9-2.29l1.19-.32c.17.91.79 1.5 1.73 1.5.78 0 1.42-.44 1.42-1.1 0-.64-.5-1-1.16-1.14l-.96-.2C68.7 16.28 68 15.43 68 14.41c0-1.29 1.18-2.35 2.59-2.35 1.77 0 2.5 1.07 2.66 1.92l-1.14.36c-.14-.56-.67-1.18-1.5-1.18-.76 0-1.35.54-1.35 1.14 0 .44.36.91.99 1.04l.99.19c1.4.28 2.14 1.11 2.14 2.27 0 1.14-.98 2.29-2.71 2.29zm9.7-5.49c0 1.36-1 2.5-2.89 2.5h-1.39V20h-1.23v-7.83h2.77c1.96 0 2.74 1.22 2.74 2.43zm-1.25.03c0-.59-.31-1.32-1.6-1.32h-1.43v2.66h1.43c1.19 0 1.6-.72 1.6-1.34zm2.05 1.47c0-2.28 1.81-4.04 4.03-4.04s4.01 1.72 4.01 4.01c0 2.31-1.83 4.02-4.04 4.02-2.22 0-4-1.68-4-3.99zm1.29-.03c0 1.59 1.19 2.88 2.73 2.88 1.53 0 2.73-1.29 2.73-2.88 0-1.59-1.2-2.87-2.73-2.87-1.54 0-2.73 1.28-2.73 2.87zM97.22 20h-1.28l-4.04-6.03V20h-1.21v-7.83h1.45L96 17.94v-5.77h1.22V20zm3.23 0h-1.23v-7.83h1.23V20zm4.98-7.83c1.5 0 2.52.77 2.52 2.06 0 .42-.2 1.27-1.13 1.69 1.19.38 1.49 1.27 1.49 1.89 0 1.26-.91 2.19-2.78 2.19h-3.09v-7.83h2.99zm-.23 3.31c1.07 0 1.52-.52 1.52-1.12 0-.6-.4-1.08-1.45-1.08h-1.61v2.2h1.54zm.35 3.41c1.02 0 1.53-.5 1.53-1.18 0-.64-.48-1.15-1.61-1.15h-1.81v2.33h1.89zm5.46-6.72v6.69h3.53V20h-4.76v-7.83h1.23zm9.7 0v1.11h-3.78v2.18h3.44v1.11h-3.44v2.31h3.82V20h-5.05v-7.83h5.01zm9.27 0v1.11h-3.78v2.18h3.44v1.11h-3.44v2.31h3.82V20h-5.05v-7.83h5.01zm8.15 7.83h-1.28l-4.04-6.03V20h-1.21v-7.83h1.45l3.86 5.77v-5.77h1.22V20z"/></g></svg>